<?xml version="1.0" encoding="UTF-8"?>
<svg width="130px" height="131px" viewBox="0 0 130 131" version="1.1" xmlns="http://www.w3.org/2000/svg" xmlns:xlink="http://www.w3.org/1999/xlink">
    <title>编组 4</title>
    <defs>
        <rect id="path-1" x="0" y="0" width="110" height="110"></rect>
        <path d="M24.0703,1.05628945 C24.0703,1.05628945 26.5,10.7091895 24.5,12.7818895 C22.5,14.8545895 1.711,20.3345895 0,20.5545895 C1,23.3537895 25.5,22.6273895 33.5,22.6273895 C40.9375,22.6273895 51.5,15.8909895 48,14.8545895 C44.5,13.8182895 41.5,12.7818895 41.5,12.7818895 C41.5,12.7818895 41.2246,6.57668945 42.1912,1.59368945 C38.0656,-1.64591055 24.0703,1.05628945 24.0703,1.05628945 Z" id="path-3"></path>
    </defs>
    <g id="页面-1" stroke="none" stroke-width="1" fill="none" fill-rule="evenodd">
        <g id="编组-4">
            <g id="编组-3">
                <rect id="矩形" fill="#B8D4FF" x="0" y="0" width="130" height="130"></rect>
                <g id="女生头像2" transform="translate(15.000000, 21.000000)">
                    <mask id="mask-2" fill="white">
                        <use xlink:href="#path-1"></use>
                    </mask>
                    <g id="矩形"></g>
                    <g id="编组" mask="url(#mask-2)">
                        <g transform="translate(18.500000, 76.536311)" id="Clipped">
                            <mask id="mask-4" fill="white">
                                <use xlink:href="#path-3"></use>
                            </mask>
                            <g id="路径"></g>
                        </g>
                    </g>
                </g>
            </g>
            <g id="touxiang" transform="translate(4.400000, 11.000000)" fill-rule="nonzero">
                <path d="M3.6,60.0171471 C3.60947057,91.495144 29.1334318,117.006311 60.61143,117 C92.0894281,116.993686 117.603156,91.4722841 117.6,59.994286 C117.596844,28.5162879 92.0780008,3 60.6,3 C45.4801525,3.00150585 30.9802555,9.00968318 20.2905153,19.702639 C9.60077509,30.3955948 3.59695924,44.897298 3.6,60.0171471 L3.6,60.0171471 Z" id="路径" fill="#FFFFFF"></path>
                <path d="M105.014911,101 C103.391555,92.5436927 88.4346887,84.4619261 75.0100363,80.0464432 C74.3534408,79.8290895 70.2676152,78.0048961 72.8272711,70.2975524 C79.5153008,63.4902368 84.5860197,52.5272972 84.5860197,41.7334367 C84.5860197,25.1528575 73.4657332,16.4490543 60.5395719,16.4490543 C47.6134106,16.4490543 36.5234649,25.1408477 36.5234649,41.7334367 C36.5234649,52.5634443 41.5941838,63.5688892 48.2944211,70.3640772 C50.9088327,77.1592653 46.2393008,79.6901526 45.2544075,80.0284285 C32.4863507,84.6008629 17.6509661,92.7128895 16.0155218,100.981985 C-2.34725936,81.1650207 -5.22564571,51.6421266 8.96753051,28.6924891 C23.1607067,5.74285157 50.9712285,-5.04823782 77.0641272,2.26952344 C103.157026,9.5872847 121.182029,33.2329608 121.2,60.168116 C121.208701,75.3246028 115.423804,89.9189069 105.015029,101" id="路径" fill="#B8D4FF"></path>
            </g>
        </g>
    </g>
</svg>