<?xml version="1.0" encoding="UTF-8"?>
<svg width="24px" height="24px" viewBox="0 0 24 24" version="1.1" xmlns="http://www.w3.org/2000/svg" xmlns:xlink="http://www.w3.org/1999/xlink">
    <title>logo</title>
    <defs>
        <rect id="path-1" x="0" y="0" width="24" height="24"></rect>
    </defs>
    <g id="icon" stroke="none" stroke-width="1" fill="none" fill-rule="evenodd">
        <g id="图标" transform="translate(-854.000000, -1131.000000)">
            <g id="logo" transform="translate(854.000000, 1131.000000)">
                <mask id="mask-2" fill="white">
                    <use xlink:href="#path-1"></use>
                </mask>
                <g id="蒙版"></g>
                <g id="编组-54" mask="url(#mask-2)">
                    <g transform="translate(0.167280, 0.000000)" id="路径">
                        <path d="M0,11.4385817 C0.170204276,7.69408765 2.2807373,4.18787956 6.43372164,1.97522397 C7.18262046,1.5667337 7.93151928,1.5667337 8.54425467,2.21350995 C9.08890836,2.79220449 9.12294921,3.4730216 8.71445895,4.18787956 C8.47617296,4.63041068 7.99960099,4.7665741 7.62515158,5.00486008 C2.00841046,8.10257791 1.66800191,15.8979338 6.97837533,19.4041419 C10.8930737,21.9912469 16.237488,20.8338578 18.7224704,16.8510777 C21.2074528,12.8342568 19.9479412,7.59196508 15.8970794,5.17506436 C15.6587934,5.03890094 15.4205074,4.93677837 15.1822214,4.80061495 C14.2971592,4.29000212 14.0248324,3.43898074 14.4333226,2.62200022 C14.8418129,1.80501969 15.7268751,1.49865199 16.6459782,1.94118311 C18.7224704,2.89432706 20.3223906,4.39212469 21.5478614,6.29841258 C24.1349664,10.4513969 23.7945578,15.8638929 20.7308809,19.6764687 C17.633163,23.5230853 12.458953,24.9868421 7.72727414,23.3188402 C3.06367697,21.6508383 0,17.2936088 0,11.4385817 Z" fill="#00A088"></path>
                        <path d="M11.5738908,19.7445504 C7.96556013,19.7445504 4.96996487,17.259568 4.28914776,13.7533599 C3.60833066,10.2811926 5.54865941,6.7409437 8.81658151,5.4473912 C12.1866262,4.11979785 15.9651611,5.34526864 17.871449,8.37490475 C18.4161027,9.25996699 18.4161027,9.9407841 17.8374082,10.4513969 C17.1225502,11.0641323 16.3396105,10.8258463 15.7268751,9.87270239 C14.5014043,7.96641449 12.4929939,7.11539311 10.4165017,7.66004679 C8.40809125,8.17065962 6.87625276,9.97482495 6.80817105,11.9491946 C6.70604849,14.2980136 7.96556013,16.2043015 10.0420523,16.8851186 C12.0504628,17.5659357 14.2971592,16.8170369 15.52263,15.0809532 C16.3736514,13.8895233 17.0544685,13.6171965 17.8033673,14.1278093 C18.5182253,14.672463 18.4501436,15.4894435 17.633163,16.6468326 C16.2034471,18.655243 14.0248324,19.7785913 11.5738908,19.7445504 Z" fill="#EBAC2C"></path>
                        <path d="M11.5738908,4.42616554 C10.2803383,4.42616554 9.39527605,3.54110331 9.39527605,2.24755081 C9.39527605,0.953998308 10.34842,-0.0331864951 11.6419725,0.00085436021 C12.8334024,0.0348952155 13.8546281,1.05612087 13.8205872,2.28159166 C13.8205872,3.50706245 12.8674433,4.42616554 11.5738908,4.42616554 Z" fill="#EBAC2C"></path>
                    </g>
                </g>
            </g>
        </g>
    </g>
</svg>