<?xml version="1.0" encoding="UTF-8"?>
<svg width="44px" height="44px" viewBox="0 0 44 44" version="1.1" xmlns="http://www.w3.org/2000/svg" xmlns:xlink="http://www.w3.org/1999/xlink">
    <title>编组 39</title>
    <g id="icon" stroke="none" stroke-width="1" fill="none" fill-rule="evenodd">
        <g id="图标" transform="translate(-1120.000000, -212.000000)">
            <g id="编组-37" transform="translate(1120.000000, 212.000000)">
                <rect id="矩形" x="0" y="0" width="44" height="44"></rect>
                <g id="编组-36" transform="translate(0.000000, 0.000000)">
                    <path d="M22,22 C28.0745536,22 33,17.0745536 33,11 C33,4.92544643 28.0745536,0 22,0 C15.9254464,0 11,4.92544643 11,11 C11,17.0745536 15.9254464,22 22,22 Z" id="路径" fill="#00C885" fill-rule="nonzero"></path>
                    <path d="M33.1964286,22.34375 L10.8035714,22.34375 C4.86160714,22.34375 0,27.2053571 0,33.1473214 C0,39.0892857 4.86160714,43.9508929 10.8035714,43.9508929 L33.1964286,43.9508929 C39.1383929,43.9508929 44,39.0892857 44,33.1473214 C44,27.2053571 39.1383929,22.34375 33.1964286,22.34375 Z" id="路径" fill="#00C885" fill-rule="nonzero"></path>
                    <rect id="矩形" fill="#FFFFFF" x="20" y="33" width="15" height="3" rx="1.5"></rect>
                </g>
            </g>
        </g>
    </g>
</svg>